# xmcd
#
# Track frame offsets:
#	150
#	15336
#	35703
#	53781
#	73983
#	87995
#	105541
#	123675
#	141055
#	160009
#	177350
#	199714
#	217281
#	238848
#
# Disc length: 3513 seconds
#
# Revision: 2
# Processed by: cddbd v1.5.2PL0 Copyright (c) Steve Scherf et al.
# Submitted via: EasyCDDAExtractor 15.3.0.1
#
DISCID=ce0db70e
DTITLE=Various Artist - Τα ερωτικά μπλουζ The Gold Party Collection
DYEAR=2012
DGENRE=Ballads
TTITLE0=Harry Nilsson - Without You
TTITLE1=Albert Hammond - When I Need You
TTITLE2=Sharlf Dean - Do You Love me?
TTITLE3=Bonnie Tyler - Total Eclipse Of The Heart
TTITLE4=Johnny Logan - Hold Me Now
TTITLE5=Air Supply - Lost In Love
TTITLE6=Cyndi Lauper - Time After Time
TTITLE7=Gloria Estefan - Anything For You
TTITLE8=Dolly Parton and Kenny Rogers - Islands In The Stream
TTITLE9=Will To Power - I'm Not In Love
TTITLE10=Tina Arena - I Want To Know What Love Is
TTITLE11=Michael Bolton - When A Man Loves A Woman
TTITLE12=Carlos Santana - Samba Pa Ti
TTITLE13=Kenny G - The Look Of Love
EXTD=Sony Music
EXTT0=
EXTT1=
EXTT2=
EXTT3=
EXTT4=
EXTT5=
EXTT6=
EXTT7=
EXTT8=
EXTT9=
EXTT10=
EXTT11=
EXTT12=
EXTT13=
PLAYORDER=
